<svg width="94" height="94" viewBox="0 0 94 94" fill="none" xmlns="http://www.w3.org/2000/svg">
<circle cx="46.55" cy="46.5188" r="46.5" fill="#CF655E"/>
<path d="M32.3833 36.3525H31.3833C31.3833 36.9047 31.831 37.3525 32.3833 37.3525V36.3525ZM32.3833 33.6858V32.6858C31.831 32.6858 31.3833 33.1335 31.3833 33.6858H32.3833ZM35.05 36.3525L35.9535 35.9239C35.788 35.5749 35.4362 35.3525 35.05 35.3525V36.3525ZM39.85 46.4725L40.725 46.9566C40.8809 46.6747 40.8915 46.335 40.7535 46.0439L39.85 46.4725ZM38.05 49.7258L37.1749 49.2417L37.1718 49.2474L38.05 49.7258ZM56.3833 53.6858V54.6858C56.9356 54.6858 57.3833 54.2381 57.3833 53.6858H56.3833ZM56.3833 51.0191H57.3833C57.3833 50.4668 56.9356 50.0191 56.3833 50.0191V51.0191ZM40.3833 51.0191L39.5071 50.5372C39.3367 50.847 39.3426 51.2237 39.5225 51.5281C39.7025 51.8324 40.0297 52.0191 40.3833 52.0191V51.0191ZM41.85 48.3525V47.3525C41.4853 47.3525 41.1495 47.551 40.9738 47.8705L41.85 48.3525ZM54.1166 46.9791L53.241 46.4961L53.2398 46.4983L54.1166 46.9791ZM58.89 38.3258L58.0177 37.8368L58.0143 37.8428L58.89 38.3258ZM37.9966 36.3525L37.0916 36.7778C37.2565 37.1285 37.6091 37.3525 37.9966 37.3525V36.3525ZM36.7433 33.6858L37.6483 33.2604C37.4835 32.9097 37.1308 32.6858 36.7433 32.6858V33.6858ZM33.3833 36.3525V33.6858H31.3833V36.3525H33.3833ZM35.05 35.3525H32.3833V37.3525H35.05V35.3525ZM40.7535 46.0439L35.9535 35.9239L34.1464 36.781L38.9464 46.901L40.7535 46.0439ZM38.925 50.2099L40.725 46.9566L38.975 45.9883L37.175 49.2417L38.925 50.2099ZM40.3833 52.6858C39.1248 52.6858 38.3133 51.3327 38.9281 50.2042L37.1718 49.2474C35.84 51.6922 37.5884 54.6858 40.3833 54.6858V52.6858ZM56.3833 52.6858H40.3833V54.6858H56.3833V52.6858ZM55.3833 51.0191V53.6858H57.3833V51.0191H55.3833ZM40.3833 52.0191H56.3833V50.0191H40.3833V52.0191ZM40.9738 47.8705L39.5071 50.5372L41.2595 51.501L42.7262 48.8344L40.9738 47.8705ZM51.7833 47.3525H41.85V49.3525H51.7833V47.3525ZM53.2398 46.4983C52.9591 47.0102 52.412 47.3525 51.7833 47.3525V49.3525C53.1546 49.3525 54.3675 48.6013 54.9934 47.46L53.2398 46.4983ZM58.0143 37.8428L53.241 46.4961L54.9923 47.4621L59.7656 38.8088L58.0143 37.8428ZM57.73 37.3525C57.9814 37.3525 58.1362 37.6253 58.0177 37.8368L59.7622 38.8148C60.6304 37.2663 59.5052 35.3525 57.73 35.3525V37.3525ZM37.9966 37.3525H57.73V35.3525H37.9966V37.3525ZM35.8383 34.1112L37.0916 36.7778L38.9017 35.9271L37.6483 33.2604L35.8383 34.1112ZM32.3833 34.6858H36.7433V32.6858H32.3833V34.6858ZM38.73 57.6858C38.73 56.7649 39.4754 56.0192 40.3833 56.0192V54.0192C38.3578 54.0192 36.73 55.6734 36.73 57.6858H38.73ZM40.3833 59.3525C39.4754 59.3525 38.73 58.6067 38.73 57.6858H36.73C36.73 59.6982 38.3578 61.3525 40.3833 61.3525V59.3525ZM42.05 57.6858C42.05 58.6002 41.2977 59.3525 40.3833 59.3525V61.3525C42.4023 61.3525 44.05 59.7048 44.05 57.6858H42.05ZM40.3833 56.0192C41.2977 56.0192 42.05 56.7715 42.05 57.6858H44.05C44.05 55.6669 42.4023 54.0192 40.3833 54.0192V56.0192ZM53.7167 54.0192C51.6912 54.0192 50.0634 55.6734 50.0634 57.6858H52.0634C52.0634 56.7649 52.8088 56.0192 53.7167 56.0192V54.0192ZM57.3834 57.6858C57.3834 55.6669 55.7356 54.0192 53.7167 54.0192V56.0192C54.6311 56.0192 55.3834 56.7715 55.3834 57.6858H57.3834ZM53.7167 61.3525C55.7356 61.3525 57.3834 59.7048 57.3834 57.6858H55.3834C55.3834 58.6002 54.6311 59.3525 53.7167 59.3525V61.3525ZM50.0634 57.6858C50.0634 59.6982 51.6912 61.3525 53.7167 61.3525V59.3525C52.8088 59.3525 52.0634 58.6067 52.0634 57.6858H50.0634Z" fill="white"/>
</svg>
