<svg width="94" height="94" viewBox="0 0 94 94" fill="none" xmlns="http://www.w3.org/2000/svg">
<circle cx="46.5498" cy="46.5188" r="46.5" fill="#CF655E"/>
<path d="M44.5498 58.1851H43.5498C43.5498 58.7374 43.9975 59.1851 44.5498 59.1851V58.1851ZM68.3831 58.1851V59.1851C68.9354 59.1851 69.3831 58.7374 69.3831 58.1851H68.3831ZM45.3515 45.7918L45.836 46.6666C46.2019 46.4639 46.403 46.055 46.3401 45.6415C46.2772 45.228 45.9637 44.8973 45.5541 44.8126L45.3515 45.7918ZM40.2165 58.1852V59.1852C40.7688 59.1852 41.2165 58.7375 41.2165 58.1852H40.2165ZM25.0498 58.1852H24.0498C24.0498 58.7375 24.4975 59.1852 25.0498 59.1852V58.1852ZM40.2165 41.8518C44.3698 41.8518 47.6948 38.4964 47.6948 34.3518H45.6948C45.6948 37.4005 43.2565 39.8518 40.2165 39.8518V41.8518ZM32.7165 34.3518C32.7165 38.5008 36.0675 41.8518 40.2165 41.8518V39.8518C37.1721 39.8518 34.7165 37.3962 34.7165 34.3518H32.7165ZM40.2165 26.8518C36.0675 26.8518 32.7165 30.2029 32.7165 34.3518H34.7165C34.7165 31.3074 37.1721 28.8518 40.2165 28.8518V26.8518ZM47.6948 34.3518C47.6948 30.2072 44.3698 26.8518 40.2165 26.8518V28.8518C43.2565 28.8518 45.6948 31.3031 45.6948 34.3518H47.6948ZM56.4665 44.0185C60.014 44.0185 62.8615 41.1389 62.8615 37.6018H60.8615C60.8615 40.0448 58.899 42.0185 56.4665 42.0185V44.0185ZM50.0498 37.6018C50.0498 41.1441 52.9242 44.0185 56.4665 44.0185V42.0185C54.0288 42.0185 52.0498 40.0396 52.0498 37.6018H50.0498ZM56.4665 31.1852C52.9242 31.1852 50.0498 34.0596 50.0498 37.6018H52.0498C52.0498 35.1641 54.0288 33.1852 56.4665 33.1852V31.1852ZM62.8615 37.6018C62.8615 34.0648 60.014 31.1852 56.4665 31.1852V33.1852C58.899 33.1852 60.8615 35.1589 60.8615 37.6018H62.8615ZM45.5498 53.3101C45.5498 52.6865 45.8545 52.0663 46.5321 51.4416C47.2164 50.8106 48.212 50.2451 49.3928 49.7725C51.7561 48.8267 54.609 48.3518 56.4665 48.3518V46.3518C54.359 46.3518 51.2535 46.8736 48.6497 47.9157C47.347 48.4371 46.1069 49.1133 45.1763 49.9712C44.2391 50.8354 43.5498 51.9512 43.5498 53.3101H45.5498ZM45.5498 58.1851V53.3101H43.5498V58.1851H45.5498ZM68.3831 57.1851H44.5498V59.1851H68.3831V57.1851ZM67.3831 53.3101V58.1851H69.3831V53.3101H67.3831ZM56.4665 48.3518C58.324 48.3518 61.1768 48.8267 63.5401 49.7725C64.7209 50.2451 65.7165 50.8106 66.4009 51.4416C67.0784 52.0663 67.3831 52.6865 67.3831 53.3101H69.3831C69.3831 51.9512 68.6939 50.8354 67.7566 49.9712C66.8261 49.1133 65.586 48.4371 64.2832 47.9157C61.6795 46.8736 58.574 46.3518 56.4665 46.3518V48.3518ZM40.2165 44.1852C37.5674 44.1852 33.6495 44.8424 30.3685 46.1553C28.7272 46.8121 27.1823 47.6576 26.0317 48.7187C24.8743 49.7862 24.0498 51.139 24.0498 52.7685H26.0498C26.0498 51.8739 26.4901 51.0167 27.3876 50.189C28.292 49.3549 29.5922 48.6201 31.1115 48.0121C34.1518 46.7955 37.8172 46.1852 40.2165 46.1852V44.1852ZM45.5541 44.8126C43.6248 44.4134 41.7341 44.1852 40.2165 44.1852V46.1852C41.5588 46.1852 43.3081 46.3903 45.1489 46.7711L45.5541 44.8126ZM41.2165 53.3102C41.2165 51.778 41.7788 48.914 45.836 46.6666L44.8669 44.9171C40.0842 47.5663 39.2165 51.159 39.2165 53.3102H41.2165ZM41.2165 58.1852V53.3102H39.2165V58.1852H41.2165ZM25.0498 59.1852H40.2165V57.1852H25.0498V59.1852ZM24.0498 52.7685V58.1852H26.0498V52.7685H24.0498Z" fill="white"/>
</svg>
