<svg width="94" height="94" viewBox="0 0 94 94" fill="none" xmlns="http://www.w3.org/2000/svg">
<circle cx="47.2168" cy="46.5188" r="46.5" fill="#CF655E"/>
<path d="M58.2501 34.0351L57.303 34.3562L57.3055 34.3632L58.2501 34.0351ZM61.7168 44.0185H62.7168C62.7168 43.9068 62.6981 43.7959 62.6615 43.6904L61.7168 44.0185ZM56.7168 55.6851H57.7168C57.7168 55.1329 57.2691 54.6851 56.7168 54.6851V55.6851ZM36.7168 55.6851V54.6851C36.1645 54.6851 35.7168 55.1329 35.7168 55.6851H36.7168ZM31.7168 44.0185L30.7721 43.6904C30.7355 43.7959 30.7168 43.9068 30.7168 44.0185H31.7168ZM35.1835 34.0351L34.2413 33.6998L34.2388 33.7071L35.1835 34.0351ZM35.0501 42.3518L34.1014 42.0356C33.9998 42.3405 34.0509 42.6757 34.2389 42.9365C34.4268 43.1973 34.7287 43.3518 35.0501 43.3518V42.3518ZM37.5501 34.8518V33.8518C37.1197 33.8518 36.7375 34.1272 36.6014 34.5356L37.5501 34.8518ZM58.3834 42.3518V43.3518C58.7049 43.3518 59.0067 43.1973 59.1947 42.9365C59.3826 42.6757 59.4338 42.3405 59.3321 42.0356L58.3834 42.3518ZM55.8834 34.8518L56.8321 34.5356C56.696 34.1272 56.3139 33.8518 55.8834 33.8518V34.8518ZM59.1972 33.7141C58.7281 32.3303 57.4178 31.3518 55.8835 31.3518V33.3518C56.5492 33.3518 57.1055 33.7733 57.3031 34.3562L59.1972 33.7141ZM62.6615 43.6904L59.1948 33.7071L57.3055 34.3632L60.7721 44.3465L62.6615 43.6904ZM62.7168 57.3518V44.0185H60.7168V57.3518H62.7168ZM60.0501 60.0185C61.5191 60.0185 62.7168 58.8208 62.7168 57.3518H60.7168C60.7168 57.7162 60.4145 58.0185 60.0501 58.0185V60.0185ZM58.3835 60.0185H60.0501V58.0185H58.3835V60.0185ZM55.7168 57.3518C55.7168 58.8208 56.9145 60.0185 58.3835 60.0185V58.0185C58.0191 58.0185 57.7168 57.7162 57.7168 57.3518H55.7168ZM55.7168 55.6851V57.3518H57.7168V55.6851H55.7168ZM36.7168 56.6851H56.7168V54.6851H36.7168V56.6851ZM37.7168 57.3518V55.6851H35.7168V57.3518H37.7168ZM35.0501 60.0185C36.5191 60.0185 37.7168 58.8208 37.7168 57.3518H35.7168C35.7168 57.7162 35.4145 58.0185 35.0501 58.0185V60.0185ZM33.3835 60.0185H35.0501V58.0185H33.3835V60.0185ZM30.7168 57.3518C30.7168 58.8208 31.9145 60.0185 33.3835 60.0185V58.0185C33.0191 58.0185 32.7168 57.7162 32.7168 57.3518H30.7168ZM30.7168 44.0185V57.3518H32.7168V44.0185H30.7168ZM34.2388 33.7071L30.7721 43.6904L32.6615 44.3465L36.1281 34.3632L34.2388 33.7071ZM37.5501 31.3518C36.0054 31.3518 34.7258 32.3389 34.2414 33.6998L36.1256 34.3705C36.3412 33.7647 36.8949 33.3518 37.5501 33.3518V31.3518ZM55.8835 31.3518H37.5501V33.3518H55.8835V31.3518ZM37.5501 49.6852C36.7191 49.6852 36.0501 49.0162 36.0501 48.1852H34.0501C34.0501 50.1208 35.6145 51.6852 37.5501 51.6852V49.6852ZM39.0501 48.1852C39.0501 49.0162 38.3812 49.6852 37.5501 49.6852V51.6852C39.4857 51.6852 41.0501 50.1208 41.0501 48.1852H39.0501ZM37.5501 46.6852C38.3812 46.6852 39.0501 47.3541 39.0501 48.1852H41.0501C41.0501 46.2496 39.4857 44.6852 37.5501 44.6852V46.6852ZM36.0501 48.1852C36.0501 47.3541 36.7191 46.6852 37.5501 46.6852V44.6852C35.6145 44.6852 34.0501 46.2496 34.0501 48.1852H36.0501ZM52.3835 48.1852C52.3835 50.1208 53.9479 51.6852 55.8835 51.6852V49.6852C55.0524 49.6852 54.3835 49.0162 54.3835 48.1852H52.3835ZM55.8835 44.6852C53.9479 44.6852 52.3835 46.2496 52.3835 48.1852H54.3835C54.3835 47.3541 55.0524 46.6852 55.8835 46.6852V44.6852ZM59.3835 48.1852C59.3835 46.2496 57.8191 44.6852 55.8835 44.6852V46.6852C56.7145 46.6852 57.3835 47.3541 57.3835 48.1852H59.3835ZM55.8835 51.6852C57.8191 51.6852 59.3835 50.1208 59.3835 48.1852H57.3835C57.3835 49.0162 56.7145 49.6852 55.8835 49.6852V51.6852ZM35.9988 42.668L38.4988 35.168L36.6014 34.5356L34.1014 42.0356L35.9988 42.668ZM58.3834 41.3518H35.0501V43.3518H58.3834V41.3518ZM54.9348 35.168L57.4348 42.668L59.3321 42.0356L56.8321 34.5356L54.9348 35.168ZM37.5501 35.8518H55.8834V33.8518H37.5501V35.8518Z" fill="white"/>
</svg>
